<?xml version="1.0" standalone="no"?><!DOCTYPE svg PUBLIC "-//W3C//DTD SVG 1.1//EN" "http://www.w3.org/Graphics/SVG/1.1/DTD/svg11.dtd"><svg class="icon" width="200px" height="200.00px" viewBox="0 0 1024 1024" version="1.1" xmlns="http://www.w3.org/2000/svg"><path fill="#ffffff" d="M512 113.777778v85.333333H227.555556a28.444444 28.444444 0 0 0-28.373334 26.311111L199.111111 227.555556v568.888888a28.444444 28.444444 0 0 0 26.311111 28.373334L227.555556 824.888889h568.888888a28.444444 28.444444 0 0 0 28.373334-26.311111L824.888889 796.444444V512h85.333333v369.777778a28.444444 28.444444 0 0 1-28.444444 28.444444H142.222222a28.444444 28.444444 0 0 1-28.444444-28.444444V142.222222a28.444444 28.444444 0 0 1 28.444444-28.444444h369.777778z m361.031111 37.191111a56.888889 56.888889 0 0 1 0 80.455111L430.535111 673.92a56.888889 56.888889 0 1 1-80.455111-80.455111l442.496-442.496a56.888889 56.888889 0 0 1 80.455111 0z"  /></svg>