<?xml version="1.0" standalone="no"?><!DOCTYPE svg PUBLIC "-//W3C//DTD SVG 1.1//EN" "http://www.w3.org/Graphics/SVG/1.1/DTD/svg11.dtd"><svg class="icon" width="200px" height="200.00px" viewBox="0 0 1024 1024" version="1.1" xmlns="http://www.w3.org/2000/svg"><path fill="#ffffff" d="M512 113.777778c219.932444 0 398.222222 178.289778 398.222222 398.222222S731.932444 910.222222 512 910.222222 113.777778 731.932444 113.777778 512 292.067556 113.777778 512 113.777778zM361.144889 280.704a14.222222 14.222222 0 0 0-20.110222 0l-60.330667 60.330667a14.222222 14.222222 0 0 0 0 20.110222L431.544889 512 280.704 662.855111a14.222222 14.222222 0 0 0 0 20.110222l60.330667 60.330667a14.222222 14.222222 0 0 0 20.110222 0L512 592.455111l150.855111 150.840889a14.222222 14.222222 0 0 0 20.110222 0l60.330667-60.330667a14.222222 14.222222 0 0 0 0-20.110222L592.455111 512l150.840889-150.855111a14.222222 14.222222 0 0 0 0-20.110222l-60.330667-60.330667a14.222222 14.222222 0 0 0-20.110222 0L512 431.544889z"  /></svg>