<svg t="1650015754049" class="icon" viewBox="0 0 1024 1024" version="1.1" xmlns="http://www.w3.org/2000/svg" p-id="1290" width="200" height="200"><path d="M437.76 20.260571a146.797714 146.797714 0 0 1 148.699429 0l388.242285 236.251429c53.686857 33.792 65.974857 97.938286 24.722286 141.750857-24.868571 23.698286-57.782857 40.594286-99.108571 40.594286H123.904C57.782857 438.857143 0 394.971429 0 337.554286c0-30.354286 16.603429-60.708571 49.590857-80.969143z m100.205714 60.123429a47.981714 47.981714 0 0 0-50.761143 0l-397.165714 227.035429C81.627429 313.782857 73.142857 323.584 73.142857 333.312c0 19.456 16.822857 32.402286 42.276572 32.402286h794.331428c12.653714 0 25.307429-3.291429 33.792-12.946286 12.580571-12.946286 8.338286-35.693714-8.484571-45.348571z" p-id="1291"></path><path d="M953.782857 845.531429H841.874286c3.584-3.510857 3.584-10.459429 3.584-13.970286V447.195429c0-21.138286-14.043429-35.181714-35.108572-35.181715-21.138286 0-35.108571 14.043429-35.108571 35.181715v384.365714c0 3.510857 0 10.459429 3.510857 14.043428H641.901714c3.510857-3.584 3.510857-10.532571 3.510857-14.043428V447.195429c0-21.138286-13.970286-35.181714-35.108571-35.181715-21.065143 0-35.108571 14.043429-35.108571 35.181715v384.365714c0 3.510857 0 10.459429 3.584 14.043428H441.782857c3.510857-3.584 3.510857-10.532571 3.510857-14.043428V447.195429c0-21.138286-14.043429-35.181714-35.108571-35.181715s-35.108571 14.043429-35.108572 35.181715v384.365714c0 3.510857 0 10.459429 3.510858 14.043428H245.174857c3.510857-3.584 3.510857-10.532571 3.510857-14.043428V447.195429c0-21.138286-13.970286-35.181714-35.108571-35.181715-21.065143 0-35.108571 14.043429-35.108572 35.181715v384.365714c0 3.510857 0 10.459429 3.584 14.043428H70.217143a70.509714 70.509714 0 0 0-70.217143 70.363429v35.254857c0 38.765714 31.597714 70.363429 70.217143 70.363429h883.565714c38.619429 0 70.217143-31.670857 70.217143-70.363429v-35.254857a70.509714 70.509714 0 0 0-70.217143-70.363429zM70.217143 944.274286v-23.405715c0-8.118857 6.582857-14.628571 14.628571-14.628571h854.308572c8.045714 0 14.628571 6.509714 14.628571 14.628571v23.405715a14.628571 14.628571 0 0 1-14.628571 14.628571H84.845714a14.628571 14.628571 0 0 1-14.628571-14.628571z" p-id="1292"></path></svg>