<?xml version="1.0" standalone="no"?><!DOCTYPE svg PUBLIC "-//W3C//DTD SVG 1.1//EN" "http://www.w3.org/Graphics/SVG/1.1/DTD/svg11.dtd"><svg class="icon" width="200px" height="200.00px" viewBox="0 0 1024 1024" version="1.1" xmlns="http://www.w3.org/2000/svg"><path fill="#ffffff" d="M887.281778 260.408889l-371.057778 154.424889L144.355556 260.408889 515.413333 113.777778l371.953778 146.631111h-0.085333zM113.777778 324.593778l370.190222 157.937778V910.222222l-91.676444-41.656889c-64.995556-28.8-130.104889-57.386667-195.285334-85.774222a127.658667 127.658667 0 0 1-33.934222-23.011555 170.524444 170.524444 0 0 1-26.353778-31.232 144.952889 144.952889 0 0 1-17.052444-35.982223A128.625778 128.625778 0 0 1 113.777778 655.104v-330.524444z m796.444444 0v328.860444a117.475556 117.475556 0 0 1-8.533333 43.804445 185.557333 185.557333 0 0 1-21.646222 39.822222 190.350222 190.350222 0 0 1-29.240889 33.052444 151.168 151.168 0 0 1-31.459556 22.044445l-94.208 39.907555c-30.236444 12.828444-60.501333 25.571556-90.794666 38.229334A5853.297778 5853.297778 0 0 1 539.164444 910.222222V482.531556L910.222222 324.522667v0.071111z"  /></svg>