<?xml version="1.0" standalone="no"?><!DOCTYPE svg PUBLIC "-//W3C//DTD SVG 1.1//EN" "http://www.w3.org/Graphics/SVG/1.1/DTD/svg11.dtd"><svg t="1621410189130" class="icon" viewBox="0 0 1024 1024" version="1.1" xmlns="http://www.w3.org/2000/svg" p-id="7716" xmlns:xlink="http://www.w3.org/1999/xlink" width="200" height="200"><defs><style type="text/css"></style></defs><path d="M505.173333 85.333333C273.3056 85.333333 85.333333 273.3056 85.333333 505.173333c0 231.867733 187.972267 419.84 419.84 419.84 231.867733 0 419.84-187.972267 419.84-419.84C925.013333 273.3056 737.041067 85.333333 505.173333 85.333333z m203.690667 571.579734a36.590933 36.590933 0 0 1 0 52.002133 36.590933 36.590933 0 0 1-52.002133 0l-149.333334-149.333333-149.367466 149.333333a36.590933 36.590933 0 0 1-52.053334 0 36.590933 36.590933 0 0 1 0-52.002133l149.333334-149.333334-149.333334-149.3504a36.590933 36.590933 0 0 1 0-52.053333 36.590933 36.590933 0 0 1 52.053334 0l149.3504 149.333333 149.333333-149.333333a36.590933 36.590933 0 0 1 52.0192 0 36.590933 36.590933 0 0 1 0 52.053333l-149.3504 149.333334 149.333333 149.3504z" fill="#DA2626" p-id="7717"></path></svg>