<?xml version="1.0" standalone="no"?><!DOCTYPE svg PUBLIC "-//W3C//DTD SVG 1.1//EN" "http://www.w3.org/Graphics/SVG/1.1/DTD/svg11.dtd"><svg class="icon" width="200px" height="200.00px" viewBox="0 0 1024 1024" version="1.1" xmlns="http://www.w3.org/2000/svg"><path fill="#ffffff" d="M573.667556 512l324.266666-324.408889a42.481778 42.481778 0 0 0 0-59.761778l-1.763555-1.763555a42.439111 42.439111 0 0 0-59.733334 0l-324.266666 324.849778L187.875556 126.065778a42.439111 42.439111 0 0 0-59.719112 0l-1.763555 1.763555a41.699556 41.699556 0 0 0 0 59.747556L450.659556 512l-324.266667 324.408889a42.481778 42.481778 0 0 0 0 59.761778l1.763555 1.763555a42.439111 42.439111 0 0 0 59.733334 0l324.266666-324.408889 324.295112 324.408889a42.439111 42.439111 0 0 0 59.733333 0l1.763555-1.763555a42.481778 42.481778 0 0 0 0-59.747556L573.667556 512z"  /></svg>