<?xml version="1.0" standalone="no"?><!DOCTYPE svg PUBLIC "-//W3C//DTD SVG 1.1//EN" "http://www.w3.org/Graphics/SVG/1.1/DTD/svg11.dtd"><svg class="icon" width="200px" height="200.00px" viewBox="0 0 1024 1024" version="1.1" xmlns="http://www.w3.org/2000/svg"><path  d="M472.177778 830.577778V910.222222H193.422222v-79.644444h278.755556z m398.222222 39.822222V910.222222H551.822222v-39.822222h318.577778zM711.111111 392.533333c87.978667 0 159.288889 71.310222 159.288889 159.288889 0 58.936889-32 110.407111-79.601778 137.955556l-0.042666 61.155555H910.222222l-39.822222 79.644445H551.822222L512 750.933333h119.466667v-61.141333a159.232 159.232 0 0 1-79.644445-137.969778c0-87.978667 71.310222-159.288889 159.288889-159.288889zM432.355556 113.777778c119.708444 0 218.865778 88.035556 236.231111 202.908444-111.687111 20.053333-196.408889 117.703111-196.408889 235.136a237.937778 237.937778 0 0 0 53.944889 151.239111l6.926222 8.078223L432.355556 711.111111v79.644445H193.422222L113.777778 671.288889h199.111111v-111.601778c-68.992-39.921778-116.181333-113.351111-119.296-198.016L193.422222 352.711111C193.422222 220.757333 300.401778 113.777778 432.355556 113.777778z"  /></svg>