<?xml version="1.0" standalone="no"?><!DOCTYPE svg PUBLIC "-//W3C//DTD SVG 1.1//EN" "http://www.w3.org/Graphics/SVG/1.1/DTD/svg11.dtd"><svg t="1621410114780" class="icon" viewBox="0 0 1024 1024" version="1.1" xmlns="http://www.w3.org/2000/svg" p-id="7580" xmlns:xlink="http://www.w3.org/1999/xlink" width="200" height="200"><defs><style type="text/css"></style></defs><path d="M512 85.333333C276.360533 85.333333 85.333333 276.360533 85.333333 512s191.0272 426.666667 426.666667 426.666667 426.666667-191.0272 426.666667-426.666667S747.639467 85.333333 512 85.333333z m0 750.933334c-37.717333 0-68.266667-34.389333-68.266667-76.8s30.549333-76.8 68.266667-76.8 68.266667 34.389333 68.266667 76.8-30.549333 76.8-68.266667 76.8z m44.168533-261.6832c0 40.840533-17.9712 73.949867-40.157866 73.949866h-8.021334c-22.186667 0-40.157867-33.109333-40.157866-73.949866L443.733333 278.749867C443.733333 237.909333 461.704533 204.8 483.8912 204.8h56.2176c22.186667 0 40.157867 33.109333 40.157867 73.949867l-24.098134 295.8336z" fill="#F1924E" p-id="7581"></path></svg>