<?xml version="1.0" standalone="no"?><!DOCTYPE svg PUBLIC "-//W3C//DTD SVG 1.1//EN" "http://www.w3.org/Graphics/SVG/1.1/DTD/svg11.dtd"><svg class="icon" width="200px" height="200.00px" viewBox="0 0 1024 1024" version="1.1" xmlns="http://www.w3.org/2000/svg"><path  d="M910.222222 696.888889a28.444444 28.444444 0 0 1 28.444445 28.444444v85.333334a28.444444 28.444444 0 0 1-28.444445 28.444444H113.777778a28.444444 28.444444 0 0 1-28.444445-28.444444v-85.333334a28.444444 28.444444 0 0 1 28.444445-28.444444h796.444444z m-14.222222 28.444444H654.222222v85.333334h241.777778a14.222222 14.222222 0 0 0 14.122667-12.558223L910.222222 796.444444v-56.888888a14.222222 14.222222 0 0 0-14.222222-14.222223z m14.222222-284.444444a28.444444 28.444444 0 0 1 28.444445 28.444444v85.333334a28.444444 28.444444 0 0 1-28.444445 28.444444H113.777778a28.444444 28.444444 0 0 1-28.444445-28.444444v-85.333334a28.444444 28.444444 0 0 1 28.444445-28.444444h796.444444z m-14.222222 28.444444H426.666667v85.333334h469.333333a14.222222 14.222222 0 0 0 14.122667-12.558223L910.222222 540.444444v-56.888888a14.222222 14.222222 0 0 0-14.222222-14.222223z m14.222222-284.444444a28.444444 28.444444 0 0 1 28.444445 28.444444v85.333334a28.444444 28.444444 0 0 1-28.444445 28.444444H113.777778a28.444444 28.444444 0 0 1-28.444445-28.444444v-85.333334a28.444444 28.444444 0 0 1 28.444445-28.444444h796.444444z m-14.222222 28.444444H654.222222v85.333334h241.777778a14.222222 14.222222 0 0 0 14.122667-12.558223L910.222222 284.444444v-56.888888a14.222222 14.222222 0 0 0-14.222222-14.222223z"  /></svg>