<svg t="1650015765606" class="icon" viewBox="0 0 1092 1024" version="1.1" xmlns="http://www.w3.org/2000/svg" p-id="1424" width="200" height="200"><path d="M910.199467 569.9584L600.064 879.752533a98.850133 98.850133 0 0 1-139.946667-0.2048L149.9136 567.637333a248.490667 248.490667 0 0 1 176.128-424.5504 248.2176 248.2176 0 0 1 146.090667 46.011734L333.960533 327.0656A147.6608 147.6608 0 0 0 438.272 579.584a145.681067 145.681067 0 0 0 105.335467-43.008l169.984-169.847467a40.209067 40.209067 0 0 0-1.365334-58.026666 39.1168 39.1168 0 0 0-55.296 1.365333L488.584533 478.344533c-26.555733 26.487467-70.0416 28.4672-97.006933 2.4576a67.9936 67.9936 0 0 1-0.887467-97.143466l138.581334-138.4448 0.750933 0.887466 27.784533-28.2624a249.992533 249.992533 0 0 1 352.392534 0l0.682666 0.682667a248.354133 248.354133 0 0 1-0.682666 351.4368m81.442133-381.678933a328.772267 328.772267 0 0 0-461.6192-53.6576 328.772267 328.772267 0 0 0-431.3088 24.7808 328.157867 328.157867 0 0 0-4.9152 464.2816L460.1856 989.866667a98.850133 98.850133 0 0 0 139.741867 0l366.318933-366.114134a324.266667 324.266667 0 0 0 96.256-232.106666 328.157867 328.157867 0 0 0-70.8608-203.298134" p-id="1425"></path></svg>