<?xml version="1.0" standalone="no"?><!DOCTYPE svg PUBLIC "-//W3C//DTD SVG 1.1//EN" "http://www.w3.org/Graphics/SVG/1.1/DTD/svg11.dtd"><svg class="icon" width="200px" height="200.00px" viewBox="0 0 1024 1024" version="1.1" xmlns="http://www.w3.org/2000/svg"><path fill="#ffffff" d="M249.408 0c26.24 0 45.952 19.84 49.28 51.584v3.968c3.2 43.648 3.2 43.648 45.952 43.648h357.696c16.384 0 23.04-3.968 23.04-19.84V51.584c3.2-31.808 26.24-47.616 55.68-47.616 29.568 0 49.28 19.84 52.544 47.616 0 15.872-6.592 35.712 3.2 43.648 13.184 8 32.896 3.968 49.28 3.968h49.28c49.28 3.968 88.64 39.68 88.64 87.296v746.24c0 51.52-42.624 87.232-101.76 91.264-112.512-6.784-232.32-7.68-351.04-7.872H101.76c-36.096 0-65.664-11.968-88.64-39.68C3.264 964.48 0 948.672 0 932.736V178.624c0-43.712 39.36-79.36 85.312-83.392h85.376c13.12 0 19.648-3.904 19.648-15.808V47.616C196.928 15.872 216.576 0 249.408 0zM925.44 337.408H105.024c-16.384 0-23.04 3.968-23.04 19.84v547.712c0 23.808 9.92 27.776 29.568 27.776h807.296c27.264 0 29.376 0 29.504-21.824V361.216c0-19.84-3.2-23.808-22.976-23.808zM780.8 686.72h58.304c20.544 0 34.304 11.648 30.848 31.104v70.144c0 19.52-13.76 31.168-34.304 31.168h-116.48c-20.608 0-34.304-11.712-34.304-31.168V721.92c0-19.52 13.696-31.168 34.24-31.168 20.672-7.872 41.216-3.904 61.696-3.904z m-476.352 0c24.064 0 34.304 11.712 34.304 35.136v62.336c0 19.456-10.304 31.104-34.304 31.104H191.36c-24 0-34.24-11.712-37.696-31.168v-66.24c0-19.52 13.696-31.104 34.304-31.104h116.48z m263.872 0c20.608 0 34.304 11.648 34.304 31.104v66.24c0 19.52-13.696 31.168-34.304 31.168H458.624c-23.936 0-37.696-11.648-37.696-31.104v-62.336c0-23.424 10.304-31.168 34.24-35.072H568.32z m3.456-222.08c20.608 0 30.848 11.648 34.304 31.104v66.24c0 19.52-10.304 31.104-34.304 31.104h-10.624l-6.848 0.064H455.168c-24 0-34.24-7.808-34.24-31.104V491.968c0-19.52 10.304-27.264 30.784-27.264h120z m263.936 0c20.544 0 30.848 11.648 30.848 27.264v70.144c0 15.552-10.368 27.264-30.848 27.264-17.152 3.84-37.76 3.84-58.24 3.84h-58.24c-20.608 0-34.304-11.648-34.304-31.104V491.968c0-19.52 10.24-27.264 30.784-27.264h120zM191.296 460.8c13.696 3.072 27.456 3.712 42.88 3.84h70.208c20.608 0 34.304 11.712 34.304 27.328v70.144c0 19.456-10.304 27.264-30.848 27.264H187.904c-20.608 0-30.848-7.808-30.848-27.264V488.064c0-19.52 13.696-27.264 34.24-27.264z"  /></svg>