<?xml version="1.0" standalone="no"?><!DOCTYPE svg PUBLIC "-//W3C//DTD SVG 1.1//EN" "http://www.w3.org/Graphics/SVG/1.1/DTD/svg11.dtd"><svg class="icon" width="200px" height="200.00px" viewBox="0 0 1024 1024" version="1.1" xmlns="http://www.w3.org/2000/svg"><path fill="#ffffff" d="M1020.778667 422.976l-0.277334-1.066667-153.173333-385.173333A52.672 52.672 0 0 0 817.066667 0H196.117333a52.608 52.608 0 0 0-50.389333 37.290667L2.517333 418.517333l-0.426666 0.938667-0.256 1.066667c-1.770667 6.634667-2.325333 13.397333-1.365334 20.010666-0.149333 2.154667-0.277333 4.330667-0.277333 6.485334v494.293333c0 45.269333 37.269333 82.133333 83.008 82.133333h856.341333c45.738667 0 83.008-36.864 83.157334-82.133333v-494.293333c0-1.749333 0-3.52-0.149334-4.992 0.554667-6.613333 0-12.970667-1.770666-19.050667z m-403.861334-58.090667l-0.426666 21.205334c-1.066667 60.650667-43.413333 101.461333-105.258667 101.461333-30.165333 0-56.106667-9.6-74.816-27.84-18.709333-18.24-28.949333-43.626667-29.482667-73.6l-0.426666-21.226667H125.546667l108.522666-261.12h545.045334l111.552 261.12H616.917333z m-512 103.744h214.762667c33.173333 77.141333 103.765333 122.666667 191.701333 122.666667 45.994667 0 88.746667-12.693333 123.285334-36.736 30.293333-21.077333 53.930667-50.538667 69.226666-85.930667H917.546667v451.072H104.917333V468.629333z"  /></svg>