<?xml version="1.0" encoding="UTF-8"?>
<svg width="16px" height="16px" viewBox="0 0 16 16" version="1.1" xmlns="http://www.w3.org/2000/svg" xmlns:xlink="http://www.w3.org/1999/xlink">
    <title>icon/村庄申报</title>
    <g id="工作台V1.0.0.3-220615" stroke="none" stroke-width="1" fill="none" fill-rule="evenodd">
        <g id="首页220615" transform="translate(-18.000000, -96.000000)" fill="#FFFFFF" fill-rule="nonzero">
            <g id="编组-11" transform="translate(0.000000, 72.000000)">
                <g id="编组" transform="translate(16.000000, 22.000000)">
                    <g id="编组" transform="translate(2.222222, 2.777778)">
                        <path d="M8.45401235,0.280147579 C8.27464064,0.10077295 8.03135087,0 7.77766975,0 C7.52398864,0 7.28069887,0.10077295 7.10132716,0.280147579 L0.853627688,6.52739656 C0.658358503,6.72265166 0.658347089,7.03923415 0.853602194,7.23450334 C0.94737142,7.32827932 1.07455384,7.38096269 1.20716833,7.38096269 L1.71824074,7.38096269 L1.71824074,7.38096269 L1.71824074,13.3415514 C1.71824074,13.8769051 2.15226198,14.3108951 2.68765431,14.3108951 L6.25138889,14.3108951 L6.25138889,11.6455534 C6.25138889,10.8025521 6.93477647,10.1191645 7.77777778,10.1191645 C8.62077908,10.1191645 9.30416667,10.8025521 9.30416667,11.6455534 L9.30416667,14.3111111 L9.30416667,14.3111111 L12.8679012,14.3111111 C13.1250057,14.3111111 13.3715798,14.2089841 13.5533802,14.0271969 C13.7351805,13.8454097 13.8373148,13.5988533 13.8373148,13.3417674 L13.8373148,7.38096269 L14.3483613,7.38096269 C14.6245036,7.38096269 14.8483613,7.15710507 14.8483613,6.88096269 C14.8483613,6.74834557 14.7956758,6.62116084 14.7018965,6.52739118 L8.45401235,0.280147579 L8.45401235,0.280147579 Z" id="路径"></path>
                    </g>
                </g>
            </g>
        </g>
    </g>
</svg>