<?xml version="1.0" standalone="no"?><!DOCTYPE svg PUBLIC "-//W3C//DTD SVG 1.1//EN" "http://www.w3.org/Graphics/SVG/1.1/DTD/svg11.dtd"><svg class="icon" width="200px" height="200.00px" viewBox="0 0 1024 1024" version="1.1" xmlns="http://www.w3.org/2000/svg"><path fill="#ffffff" d="M899.584 847.928889l-159.715556-159.829333c112.113778-138.311111 103.879111-342.584889-24.718222-471.267556-137.301333-137.400889-361.102222-137.400889-498.403555 0-137.287111 137.386667-137.287111 361.344 0 498.744889 68.650667 68.693333 158.819556 103.054222 248.974222 103.054222 78.72 0 157.44-26.112 221.966222-78.791111l159.715556 159.857778c7.324444 7.324444 16.483556 10.524444 26.097777 10.524444a38.684444 38.684444 0 0 0 26.083556-10.524444c14.179556-14.208 14.179556-37.12 0-51.768889zM268.472889 663.367111c-108.942222-108.999111-108.942222-286.250667 0-395.235555 54.456889-54.044444 125.852444-81.536 197.248-81.536s142.791111 27.022222 197.262222 81.521777c108.913778 108.999111 108.913778 286.250667 0 395.235556-108.472889 109.013333-285.582222 109.013333-394.524444 0z"  /></svg>