<?xml version="1.0" standalone="no"?><!DOCTYPE svg PUBLIC "-//W3C//DTD SVG 1.1//EN" "http://www.w3.org/Graphics/SVG/1.1/DTD/svg11.dtd"><svg t="1621410198464" class="icon" viewBox="0 0 1041 1024" version="1.1" xmlns="http://www.w3.org/2000/svg" p-id="7852" xmlns:xlink="http://www.w3.org/1999/xlink" width="203.3203125" height="200"><defs><style type="text/css"></style></defs><path d="M535.893333 98.986667C304.008533 98.986667 116.053333 286.941867 116.053333 518.826667 116.053333 750.711467 304.008533 938.666667 535.893333 938.666667 767.778133 938.666667 955.733333 750.711467 955.733333 518.826667 955.733333 286.941867 767.778133 98.986667 535.893333 98.986667z m200.635734 346.077866l-216.234667 216.200534c-5.461333 5.461333-12.629333 8.192-19.780267 8.192-7.168 0-14.318933-2.730667-19.797333-8.192l-117.4528-117.4528c-9.864533-9.864533-12.288-25.770667-4.1472-37.0688a27.989333 27.989333 0 0 1 42.615467-3.601067l78.984533 78.967467c10.922667 10.922667 28.637867 10.922667 39.5776 0L698.026667 404.394667a27.989333 27.989333 0 0 1 42.615466 3.584c8.157867 11.332267 5.7344 27.221333-4.113066 37.085866z" fill="#2690F3" p-id="7853"></path></svg>