<svg t="1650015718882" class="icon" viewBox="0 0 1243 1024" version="1.1" xmlns="http://www.w3.org/2000/svg" p-id="1157" width="200" height="200"><path d="M1134.738286 718.043429a37.961143 37.961143 0 0 1-37.814857 37.814857h-189.074286v109.714285l-135.68-109.714285H642.998857a37.961143 37.961143 0 0 1-37.814857-37.814857V340.114286c0-20.845714 17.042286-37.814857 37.814857-37.814857h453.924572c20.845714 0 37.814857 16.822857 37.814857 37.814857v377.856zM529.554286 340.114286v264.484571H364.982857L226.962286 714.898286V604.525714H113.371429a37.888 37.888 0 0 1-37.814858-37.814857V113.371429c0-20.845714 17.042286-37.888 37.814858-37.888h605.257142c20.772571 0 37.814857 16.896 37.814858 37.888V226.742857H642.925714c-62.537143 0-113.371429 50.907429-113.371428 113.371429z m567.369143-113.517715h-264.777143V113.371429C832.146286 50.834286 781.238857 0 718.701714 0H113.371429C50.907429 0 0 50.761143 0 113.371429v453.485714C0 629.394286 50.907429 680.228571 113.444571 680.228571h37.888v191.926858l240.128-192H529.554286v37.888c0 62.537143 50.907429 113.371429 113.444571 113.371428h102.546286L983.478857 1024v-192.658286h113.444572c62.537143 0 113.517714-50.761143 113.517714-113.371428V340.260571c0-62.537143-50.980571-113.517714-113.517714-113.517714z" p-id="1158"></path></svg>