<?xml version="1.0" standalone="no"?><!DOCTYPE svg PUBLIC "-//W3C//DTD SVG 1.1//EN" "http://www.w3.org/Graphics/SVG/1.1/DTD/svg11.dtd"><svg class="icon" width="200px" height="200.00px" viewBox="0 0 1024 1024" version="1.1" xmlns="http://www.w3.org/2000/svg"><path  d="M394.993778 637.368889a28.16 28.16 0 0 1 27.178666 20.138667c11.036444 38.428444 46.606222 64.967111 87.096889 64.967111a91.121778 91.121778 0 0 0 61.127111-23.438223A228.835556 228.835556 0 0 0 568.888889 725.333333c0 76.16 37.418667 143.587556 94.862222 184.888889H169.6c-29.866667 0-54.243556-23.139556-55.736889-52.238222L113.777778 855.153778V692.423111c0-29.454222 23.452444-53.518222 52.935111-54.983111l2.872889-0.071111h225.422222zM910.222222 539.420444v119.281778c-29.667556 6.755556-129.848889 97.92-182.044444 195.655111-43.434667-78.976-130.844444-115.512889-130.844445-115.512889L670.350222 696.888889l62.890667 66.944s3.982222-10.069333 12.017778-26.353778l2.531555-5.063111c23.893333-47.217778 77.482667-136.874667 162.432-192.995556zM814.136889 113.777778c16.142222 0 29.511111 13.610667 30.592 31.445333l0.071111 2.360889v355.342222A228.423111 228.423111 0 0 0 796.444444 497.777778c-76.8 0-144.725333 38.058667-185.941333 96.341333h-41.6c0 37.973333-27.050667 68.792889-61.297778 68.792889-32.711111 0-59.733333-29.098667-61.255111-65.550222l-0.071111-3.228445h-122.097778V147.584c0-17.635556 12.728889-32.512 28.615111-33.720889L354.872889 113.777778h459.264z m-551.196445 68.778666v411.591112h-91.960888V236.017778c0-29.525333 24.248889-53.461333 54.186666-53.461334h37.774222zM715.52 417.621333H454.129778c-11.662222 0-22.855111 10.083556-22.328889 22.016 0.526222 11.278222 8.817778 20.906667 20.280889 21.930667l2.048 0.099556h261.404444c11.662222 0 22.855111-10.097778 22.314667-22.030223-0.540444-11.918222-9.813333-22.016-22.328889-22.016z m-0.270222-153.870222H453.859556c-11.662222 0-22.855111 10.097778-22.328889 22.030222 0.526222 11.278222 8.817778 20.906667 20.280889 21.930667l2.048 0.099556h261.404444c11.662222 0 22.855111-10.097778 22.314667-22.044445-0.540444-11.918222-9.813333-22.016-22.328889-22.016z"  /></svg>