<?xml version="1.0" standalone="no"?><!DOCTYPE svg PUBLIC "-//W3C//DTD SVG 1.1//EN" "http://www.w3.org/Graphics/SVG/1.1/DTD/svg11.dtd"><svg class="icon" width="200px" height="200.00px" viewBox="0 0 1024 1024" version="1.1" xmlns="http://www.w3.org/2000/svg"><path  d="M907.207111 452.878222c-3.086222-18.517333-19.768889-37.418667-37.162667-41.514666l-12.956444-3.185778c-31.544889-10.154667-58.254222-32.711111-74.652444-63.089778a146.346667 146.346667 0 0 1-13.752889-101.319111l4.067555-13.013333c5.219556-18.062222-1.564444-42.922667-15.132444-55.281778 0 0-12.216889-11.008-46.464-32.156445-34.375111-21.063111-49.109333-26.936889-49.109334-26.936889-16.725333-6.542222-40.135111-0.284444-52.337777 13.582223l-9.031111 10.339555c-23.822222 24.192-55.537778 37.646222-88.504889 37.518222-33.123556 0.085333-64.995556-13.482667-88.888889-37.845333l-8.618667-10.012444c-12.088889-13.866667-35.626667-20.024889-52.394667-13.582223 0 0-14.961778 5.873778-49.294222 26.936889-34.375111 21.333333-46.449778 32.341333-46.449778 32.341334-13.539556 12.231111-20.309333 36.849778-15.089777 55.096889l3.712 13.155555c7.68 34.360889 2.787556 70.528-13.710223 101.176889-16.426667 30.592-43.349333 53.262222-75.136 63.274667l-12.515555 3.000889c-17.137778 4.238222-33.991111 22.897778-37.176889 41.528888 0 0-2.830222 16.682667-2.830222 59.079112 0 42.410667 2.844444 59.093333 2.844444 59.093333 3.086222 18.716444 19.768889 37.418667 37.148445 41.514667l12.231111 3.000888c31.857778 9.984 58.837333 32.739556 75.207111 63.473778a146.503111 146.503111 0 0 1 13.767111 101.304889l-3.555556 12.828445c-5.205333 18.062222 1.564444 42.922667 15.146667 55.296 0 0 12.202667 10.993778 46.449778 32.142222 34.389333 21.162667 49.166222 26.936889 49.166222 26.936889 16.682667 6.542222 40.135111 0.284444 52.337778-13.582223l8.533333-9.813333c49.777778-50.631111 128.241778-50.574222 177.976889 0.085333l8.533333 9.870223c12.032 13.824 35.569778 19.982222 52.337778 13.539555 0 0 14.961778-5.873778 49.351111-26.936889 34.332444-21.148444 46.364444-32.142222 46.364445-32.142222 13.582222-12.188444 20.337778-37.063111 15.132444-55.296l-3.726222-13.354667a145.464889 145.464889 0 0 1 13.724444-100.792888c16.469333-30.620444 43.406222-53.347556 75.221334-63.459556l12.259555-3.015111c17.123556-4.224 33.976889-22.897778 37.162667-41.500445 0 0 2.830222-16.696889 2.830222-59.093333-0.170667-42.410667-3.015111-59.192889-3.015111-59.192889zM512.142222 681.827556c-87.608889 0-158.791111-75.975111-158.791111-169.856-0.142222-44.885333 16.526222-87.978667 46.321778-119.793778s70.272-49.735111 112.512-49.820445c87.566222 0 158.762667 75.918222 158.762667 169.813334-0.170667 93.681778-71.239111 169.6-158.805334 169.6v0.056889z"  /></svg>