<?xml version="1.0" standalone="no"?><!DOCTYPE svg PUBLIC "-//W3C//DTD SVG 1.1//EN" "http://www.w3.org/Graphics/SVG/1.1/DTD/svg11.dtd"><svg class="icon" width="200px" height="200.00px" viewBox="0 0 1024 1024" version="1.1" xmlns="http://www.w3.org/2000/svg"><path  d="M824.888889 113.777778a28.444444 28.444444 0 0 1 28.444444 28.444444v362.723556A227.968 227.968 0 0 0 796.444444 497.777778c-125.681778 0-227.555556 101.873778-227.555555 227.555555 0 76.16 37.418667 143.587556 94.862222 184.888889H142.222222a28.444444 28.444444 0 0 1-28.444444-28.444444V142.222222a28.444444 28.444444 0 0 1 28.444444-28.444444h682.666667z m-28.444445 440.888889c94.250667 0 170.666667 76.416 170.666667 170.666666s-76.416 170.666667-170.666667 170.666667-170.666667-76.416-170.666666-170.666667 76.416-170.666667 170.666666-170.666666z m0 42.666666a28.444444 28.444444 0 0 0-28.373333 26.311111L768 625.777778v113.777778a28.444444 28.444444 0 0 0 28.444444 28.444444h56.888889a28.444444 28.444444 0 0 0 2.133334-56.817778L853.333333 711.111111l-28.444444-0.014222V625.777778a28.444444 28.444444 0 0 0-28.444445-28.444445z m-327.111111 56.888889H270.222222a42.666667 42.666667 0 0 0-2.503111 85.262222L270.222222 739.555556h199.111111a42.666667 42.666667 0 0 0 0-85.333334z m113.777778-199.111111H270.222222a42.666667 42.666667 0 0 0-2.503111 85.262222L270.222222 540.444444h312.888889a42.666667 42.666667 0 0 0 0-85.333333z m113.777778-199.111111H270.222222a42.666667 42.666667 0 0 0-2.503111 85.262222L270.222222 341.333333h426.666667a42.666667 42.666667 0 0 0 0-85.333333z"  /></svg>