<?xml version="1.0" standalone="no"?><!DOCTYPE svg PUBLIC "-//W3C//DTD SVG 1.1//EN" "http://www.w3.org/Graphics/SVG/1.1/DTD/svg11.dtd"><svg class="icon" width="200px" height="200.00px" viewBox="0 0 1024 1024" version="1.1" xmlns="http://www.w3.org/2000/svg"><path  d="M512 113.777778c219.932444 0 398.222222 178.289778 398.222222 398.222222S731.932444 910.222222 512 910.222222 113.777778 731.932444 113.777778 512 292.067556 113.777778 512 113.777778z m158.435556 197.105778c-100.48-79.36-246.698667-72.661333-339.456 20.096-99.982222 99.982222-99.982222 262.058667 0 362.040888 99.982222 99.982222 262.058667 99.982222 362.040888 0l1.92-2.048a42.666667 42.666667 0 0 0-62.264888-58.296888l-3.100445 3.029333c-66.858667 63.601778-172.629333 62.592-238.250667-3.029333-66.659556-66.645333-66.659556-174.705778 0-241.351112 59.363556-59.377778 151.594667-65.848889 218.140445-19.456l-34.688 34.688A28.444444 28.444444 0 0 0 594.887111 455.111111H725.333333a28.444444 28.444444 0 0 0 28.444445-28.444444v-130.446223a28.444444 28.444444 0 0 0-48.554667-20.110222z"  /></svg>