<svg t="1650014614804" class="icon" viewBox="0 0 1024 1024" version="1.1" xmlns="http://www.w3.org/2000/svg" p-id="1293" width="200" height="200"><path d="M731.428571 746.057143H292.571429c-21.942857 0-43.885714-21.942857-43.885715-43.885714v-65.828572h526.628572v65.828572c0 21.942857-21.942857 43.885714-43.885715 43.885714z" p-id="1294"></path><path d="M117.028571 1024c-51.2 0-87.771429-36.571429-87.771428-87.771429V87.771429C29.257143 36.571429 65.828571 0 117.028571 0h526.628572c21.942857 0 43.885714 21.942857 43.885714 43.885714s-21.942857 43.885714-43.885714 43.885715H117.028571v848.457142h789.942858V358.4c0-21.942857 21.942857-43.885714 43.885714-43.885714s43.885714 21.942857 43.885714 43.885714v577.828571c0 51.2-36.571429 87.771429-87.771428 87.771429H117.028571z" p-id="1295"></path><path d="M490.057143 533.942857c-21.942857 0-43.885714-21.942857-43.885714-43.885714 0-14.628571 7.314286-21.942857 14.628571-29.257143L906.971429 36.571429c14.628571-14.628571 43.885714-14.628571 58.514285 0 14.628571 14.628571 14.628571 43.885714 0 58.514285L519.314286 526.628571c-7.314286 7.314286-14.628571 7.314286-29.257143 7.314286z" p-id="1296"></path></svg>