<?xml version="1.0" standalone="no"?><!DOCTYPE svg PUBLIC "-//W3C//DTD SVG 1.1//EN" "http://www.w3.org/Graphics/SVG/1.1/DTD/svg11.dtd"><svg t="1630548222630" class="icon" viewBox="0 0 1024 1024" version="1.1" xmlns="http://www.w3.org/2000/svg" p-id="2234" xmlns:xlink="http://www.w3.org/1999/xlink" width="200" height="200"><defs><style type="text/css"></style></defs><path d="M711.111111 625.777778a128 128 0 0 1 113.564445 187.107555L879.331556 867.555556A28.444444 28.444444 0 1 1 839.111111 907.776l-51.427555-51.413333A128 128 0 1 1 711.111111 625.777778z m56.888889-512a28.444444 28.444444 0 0 1 28.444444 28.444444l0.014223 463.729778A169.884444 169.884444 0 0 0 711.111111 583.111111c-94.250667 0-170.666667 76.416-170.666667 170.666667 0 69.973333 42.112 130.133333 102.385778 156.458666L142.222222 910.222222a28.444444 28.444444 0 0 1-28.444444-28.444444V142.222222a28.444444 28.444444 0 0 1 28.444444-28.444444h625.777778z m-56.888889 554.666666a85.333333 85.333333 0 1 0 0 170.666667 85.333333 85.333333 0 0 0 0-170.666667z m-227.555555 71.111112H256a28.444444 28.444444 0 0 0-2.133333 56.817777L256 796.444444h227.555556a28.444444 28.444444 0 1 0 0-56.888888z m-56.888889-142.222223H256a28.444444 28.444444 0 0 0-2.133333 56.817778L256 654.222222h170.666667a28.444444 28.444444 0 1 0 0-56.888889z m-56.888889-426.666666l-49.848889 102.058666-112.469333 15.872 81.664 78.933334-19.655112 111.872L369.777778 426.140444l100.309333 53.262223-19.655111-111.857778 81.664-78.947556-112.469333-15.872L369.777778 170.666667z" p-id="2235"></path></svg>