<?xml version="1.0" standalone="no"?><!DOCTYPE svg PUBLIC "-//W3C//DTD SVG 1.1//EN" "http://www.w3.org/Graphics/SVG/1.1/DTD/svg11.dtd"><svg t="1630548245377" class="icon" viewBox="0 0 1024 1024" version="1.1" xmlns="http://www.w3.org/2000/svg" p-id="2361" xmlns:xlink="http://www.w3.org/1999/xlink" width="200" height="200"><defs><style type="text/css"></style></defs><path d="M768 113.777778a28.444444 28.444444 0 0 1 28.444444 28.444444l0.014223 463.729778A169.884444 169.884444 0 0 0 711.111111 583.111111c-94.250667 0-170.666667 76.416-170.666667 170.666667 0 69.973333 42.112 130.133333 102.385778 156.458666L142.222222 910.222222a28.444444 28.444444 0 0 1-28.444444-28.444444V142.222222a28.444444 28.444444 0 0 1 28.444444-28.444444h625.777778zM483.555556 739.555556H256a28.444444 28.444444 0 1 0 0 56.888888h227.555556a28.444444 28.444444 0 1 0 0-56.888888z m-56.888889-142.222223H256a28.444444 28.444444 0 1 0 0 56.888889h170.666667a28.444444 28.444444 0 1 0 0-56.888889z m-56.888889-426.666666l-49.848889 102.058666-112.469333 15.872 81.664 78.933334-19.655112 111.872L369.777778 426.140444l100.309333 53.262223-19.655111-111.857778 81.664-78.947556-112.469333-15.872L369.777778 170.666667z m496.810666 578.332444c-0.995556-5.959111-6.357333-12.032-11.946666-13.340444l-4.167111-1.038223a42.097778 42.097778 0 0 1-23.992889-20.266666 47.047111 47.047111 0 0 1-4.423111-32.568889l1.308444-4.181333c1.678222-5.802667-0.497778-13.795556-4.864-17.777778 0 0-3.925333-3.527111-14.933333-10.325334-11.050667-6.769778-15.786667-8.675556-15.786667-8.675555-5.376-2.090667-12.899556-0.085333-16.824889 4.380444l-2.901333 3.328a39.708444 39.708444 0 0 1-28.444445 12.046223 39.864889 39.864889 0 0 1-28.572444-12.16l-2.773333-3.214223c-3.882667-4.465778-11.448889-6.442667-16.839111-4.366222 0 0-4.807111 1.891556-15.843556 8.661333-11.050667 6.855111-14.933333 10.382222-14.933333 10.382223-4.352 3.939556-6.528 11.847111-4.849778 17.720889l1.194667 4.224a47.104 47.104 0 0 1-4.408889 32.526222 41.841778 41.841778 0 0 1-24.149334 20.337778l-4.024889 0.967111c-5.504 1.351111-10.922667 7.352889-11.946666 13.340444 0 0-0.910222 5.361778-0.910222 18.986667 0 13.639111 0.910222 19.000889 0.910222 19.000889 0.995556 6.016 6.357333 12.032 11.946666 13.340444l3.925334 0.967111c10.24 3.214222 18.915556 10.524444 24.177778 20.394667 5.504 10.24 6.826667 21.916444 4.423111 32.568889l-1.137778 4.124444c-1.678222 5.802667 0.497778 13.795556 4.864 17.777778 0 0 3.925333 3.527111 14.933333 10.325333 11.050667 6.798222 15.800889 8.675556 15.800889 8.675556 5.361778 2.090667 12.899556 0.071111 16.824889-4.380445l2.744889-3.157333a39.608889 39.608889 0 0 1 57.201778 0.028445l2.744889 3.171555c3.868444 4.451556 11.434667 6.428444 16.824888 4.352 0 0 4.807111-1.891556 15.857778-8.661333 11.036444-6.798222 14.904889-10.325333 14.904889-10.325334 4.366222-3.925333 6.542222-11.918222 4.864-17.777777l-1.194667-4.295111a46.762667 46.762667 0 0 1 4.408889-32.384 42.126222 42.126222 0 0 1 24.177778-20.408889l3.939556-0.967111c5.504-1.351111 10.922667-7.352889 11.946666-13.340445 0 0 0.910222-5.361778 0.910223-18.986667-0.056889-13.639111-0.967111-19.029333-0.967112-19.029333z m-126.990222 73.585778c-28.16 0-51.043556-24.419556-51.043555-54.599111a56.149333 56.149333 0 0 1 14.890666-38.499556 49.692444 49.692444 0 0 1 36.167111-16.014222c28.145778 0 51.029333 24.405333 51.029334 54.584889-0.056889 30.108444-22.897778 54.513778-51.043556 54.513778v0.014222z" p-id="2362"></path></svg>