<?xml version="1.0" standalone="no"?><!DOCTYPE svg PUBLIC "-//W3C//DTD SVG 1.1//EN" "http://www.w3.org/Graphics/SVG/1.1/DTD/svg11.dtd"><svg class="icon" width="200px" height="200.00px" viewBox="0 0 1024 1024" version="1.1" xmlns="http://www.w3.org/2000/svg"><path  d="M706.176 796.444444H189.824V473.500444h-44.942222a17.450667 17.450667 0 0 1-15.587556-11.093333 18.176 18.176 0 0 1 3.555556-19.100444L433.962667 120.035556c3.626667-3.982222 8.718222-6.243556 14.037333-6.243556s10.410667 2.261333 14.037333 6.243556l245.134223 263.196444L792.903111 113.777778 881.777778 393.116444h-31.217778l31.175111 98.204445h-31.203555l31.203555 98.375111h-71.296V827.448889h53.76V910.222222H128v-82.773333h647.324444V589.696h-69.148444V796.444444z m-138.894222-179.925333h-103.665778v109.312h103.665778V616.533333z m-171.406222 0h-103.68v109.312h103.68V616.533333z m310.300444-33.564444l29.198222-91.633778-29.198222-0.014222v91.648z m-138.894222-109.454223h-103.665778v109.326223h103.665778v-109.326223z m-171.406222 0h-103.68v109.326223h103.68v-109.326223z m334.648888-65.208888l4.835556-15.175112h-18.972444l14.136888 15.175112z"  /></svg>