<?xml version="1.0" encoding="utf-8"?>
<!-- Generator: Adobe Illustrator 23.1.1, SVG Export Plug-In . SVG Version: 6.00 Build 0)  -->
<svg version="1.1" id="图层_1" xmlns="http://www.w3.org/2000/svg" xmlns:xlink="http://www.w3.org/1999/xlink" x="0px" y="0px"
	 viewBox="0 0 14 14" style="enable-background:new 0 0 14 14;" xml:space="preserve">
<style type="text/css">
	.st0{fill:#FFFFFF;}
</style>
<title>意见建议</title>
<g>
	<path id="路径" class="st0" d="M10,10.2H4l0,0c-0.3,0-0.6-0.3-0.6-0.6c0,0,0,0,0,0V8.7h7.2v0.9v0C10.6,9.9,10.3,10.2,10,10.2
		C10,10.2,10,10.2,10,10.2L10,10.2z"/>
	<path class="st0" d="M1.6,14c-0.7,0-1.2-0.5-1.2-1.2V1.2C0.4,0.5,0.9,0,1.6,0h7.2c0.3,0,0.6,0.3,0.6,0.6c0,0.3-0.3,0.6-0.6,0.6H1.6
		v11.6l10.8,0V4.9c0-0.3,0.3-0.6,0.6-0.6c0.3,0,0.6,0.3,0.6,0.6v7.9c0,0.7-0.5,1.2-1.2,1.2H1.6z"/>
	<path class="st0" d="M6.7,7.3L6.7,7.3c-0.3,0-0.6-0.3-0.6-0.6c0-0.2,0.1-0.3,0.2-0.4l6.1-5.8l0,0c0.2-0.2,0.6-0.2,0.8,0
		c0.2,0.2,0.2,0.6,0,0.8c0,0,0,0,0,0L7.1,7.2l0,0C7,7.3,6.9,7.3,6.7,7.3L6.7,7.3z"/>
</g>
</svg>
