<?xml version="1.0" encoding="UTF-8"?>
<svg width="12px" height="12px" viewBox="0 0 12 12" version="1.1" xmlns="http://www.w3.org/2000/svg" xmlns:xlink="http://www.w3.org/1999/xlink">
    <title>提示备份 4</title>
    <g id="工作台V2.1.1-230228" stroke="none" stroke-width="1" fill="none" fill-rule="evenodd">
        <g id="编组-30" transform="translate(-1383.000000, -629.000000)" fill="#1492FF" fill-rule="nonzero">
            <g id="编组-15" transform="translate(1040.000000, 429.000000)">
                <g id="编组-12" transform="translate(12.000000, 6.000000)">
                    <g id="列表" transform="translate(199.000000, 60.000000)">
                        <g id="编组-110备份-2" transform="translate(0.000000, 6.000000)">
                            <g id="提示备份-4" transform="translate(132.000000, 128.000000)">
                                <path d="M5.99999974,3.94351218e-13 L6.2249389,0.0041384731 C9.43443836,0.122428269 12.0000139,2.76160373 12.0000139,6 C12.0000139,9.23840992 9.43443836,11.8775857 6.2249389,11.9958755 L5.99999974,12.000014 L5.77506152,11.9958755 C2.56557528,11.8775857 -2.62268252e-07,9.23840992 -2.62268252e-07,6 C-2.62268252e-07,2.76160373 2.56557528,0.122428269 5.77506152,0.0041384731 L5.99999974,3.94351218e-13 Z M5.9908022,0.499915398 C2.9624343,0.499915398 0.499999738,2.96243456 0.499999738,6 C0.499999738,8.88669674 2.72831526,11.2658364 5.56488873,11.4835073 L5.7842591,11.4959601 L5.99999974,11.500014 C9.03757931,11.500014 11.5000139,9.03757943 11.5000139,6 C11.5000139,3.11331289 9.27169482,0.734177256 6.43511243,0.516506639 L6.21574136,0.504053871 L5.9908022,0.499915398 Z M7.12457887,4.59344459 L7.12457887,4.59515888 L7.1254372,4.59429441 L5.95972139,8.63144364 C5.89543565,8.86287281 5.86372128,9.01458744 5.86372128,9.08572971 C5.86372128,9.11315834 5.87134035,9.13982504 5.8863245,9.16522189 L5.91429279,9.2023013 C5.94114704,9.23497357 5.98087154,9.25436671 6.02315002,9.25544425 C6.08743576,9.25544425 6.15172127,9.22801567 6.21600689,9.16972994 C6.38572154,9.02915868 6.59057842,8.77630057 6.82886424,8.4094435 L7.02172111,8.52344364 C6.45000599,9.5194448 5.84315333,10.0174454 5.19942992,10.0174454 C5.00194438,10.0174454 4.83737263,9.9735596 4.70483746,9.88491019 L4.61142917,9.81001616 C4.46669892,9.67460702 4.38709453,9.48355953 4.39285782,9.28544446 C4.39285782,9.1448732 4.42457219,8.96830073 4.48885793,8.75058719 L5.27742994,6.03601763 C5.33914433,5.82756051 5.37562433,5.65969719 5.38774776,5.53286747 L5.39228719,5.44544608 C5.39121055,5.38074128 5.36848185,5.31893832 5.32871095,5.26940245 L5.28343008,5.22430247 C5.20065354,5.15647157 5.09541775,5.12220872 4.9885731,5.12830236 C4.9328587,5.12830236 4.86428741,5.1291595 4.78371622,5.13344522 L4.85743052,4.90544496 L6.78172183,4.59344459 L7.12457887,4.59344459 Z M6.7731513,1.98257452 C7.00715157,1.98257452 7.2051518,2.06400316 7.36629535,2.2260037 C7.49452393,2.35628917 7.57173521,2.50851816 7.59749058,2.68225087 L7.60715226,2.81657513 C7.60988832,3.00150113 7.54922592,3.18059867 7.43708839,3.32494248 L7.36372304,3.40714848 C7.23455785,3.54001289 7.06434444,3.62335494 6.88253501,3.64505305 L6.77229349,3.65057766 C6.58895051,3.65269618 6.41160118,3.59192187 6.26893207,3.48019985 L6.1877217,3.40714845 C6.02796917,3.25229671 5.93952649,3.03817029 5.94343586,2.81571886 C5.94343586,2.63194708 5.99500165,2.46902158 6.09813328,2.32781895 L6.18515061,2.2260037 C6.33885626,2.06674805 6.55185534,1.97856787 6.7731513,1.98257452 Z" id="形状结合"></path>
                            </g>
                        </g>
                    </g>
                </g>
            </g>
        </g>
    </g>
</svg>